<svg version="1.1" xmlns="http://www.w3.org/2000/svg" xmlns:xlink="http://www.w3.org/1999/xlink" width="97.48253" height="119.50957" viewBox="0,0,97.48253,119.50957"><g transform="translate(-193.06575,-202.94815)"><g data-paper-data="{&quot;isPaintingLayer&quot;:true}" fill="#ffffff" fill-rule="nonzero" stroke="#000000" stroke-width="3.5" stroke-linecap="butt" stroke-linejoin="miter" stroke-miterlimit="10" stroke-dasharray="" stroke-dashoffset="0" style="mix-blend-mode: normal"><path d="M221.15534,294.05593v-61.64706h40.47059v61.64706z"/><path d="M216.61668,228.80277c0,-13.31261 10.79201,-24.10462 24.10462,-24.10462c13.31261,0 24.10462,10.79201 24.10462,24.10462c0,13.31261 -10.79201,24.10462 -24.10462,24.10462c-13.31261,0 -24.10462,-10.79201 -24.10462,-24.10462z"/><path d="M233.56588,217.4869l-20.17753,44.58819l-18.00677,-8.14862l20.17753,-44.58818z"/><path d="M269.24347,210.26308l19.01243,45.0973l-18.21238,7.6781l-19.01243,-45.09731z"/><path d="M243.22265,320.4136v-30.82707h19.91571v30.82707z"/><path d="M219.78601,320.70772v-30.82707h20.43664v30.82707z"/></g></g></svg>